<?xml version="1.0" encoding="UTF-8"?>
<svg width="1025px" height="1024px" viewBox="0 0 1025 1024" version="1.1" xmlns="http://www.w3.org/2000/svg" xmlns:xlink="http://www.w3.org/1999/xlink">
    <!-- Generator: Sketch 59 (86127) - https://sketch.com -->
    <title>Desktop HD</title>
    <desc>Created with Sketch.</desc>
    <g id="Page-1" stroke="none" stroke-width="1" fill="none" fill-rule="evenodd" fill-opacity="0.03">
        <g id="Desktop-HD" transform="translate(-223.000000, 0.000000)" fill="#60C0FF" fill-rule="nonzero">
            <g id="iconmonstr-twitter-1" transform="translate(240.500000, 109.500000)">
                <path d="M989.650485,95.5846432 C953.239595,111.748934 914.107165,122.63509 873.03667,127.542107 C914.973109,102.429726 947.177985,62.6375291 962.311391,15.2167767 C923.09649,38.4735631 879.63434,55.3800922 833.36818,64.4931238 C796.379993,25.0308107 743.557398,0.372019417 685.168019,0.372019417 C554.080566,0.372019417 457.754585,122.676325 487.361629,249.640235 C318.667456,241.186971 169.065291,160.365515 68.904415,37.5251481 C15.7107015,128.77917 41.3179078,248.15576 131.705985,308.60691 C98.4702233,307.534789 67.1312913,298.421757 39.7921966,283.205881 C37.565483,377.263913 104.985422,465.260335 202.630937,484.847167 C174.054779,492.59943 142.757083,494.413789 110.923325,488.310944 C136.736709,568.967459 211.702733,627.645485 300.606335,629.294903 C215.248981,696.220017 107.706961,726.115709 0,713.415194 C89.852017,771.0211 196.610563,804.627981 311.245078,804.627981 C688.219442,804.627981 901.200473,486.249172 888.335017,200.693772 C928.003507,172.035143 962.435097,136.284019 989.650485,95.5846432 Z" id="Path"></path>
            </g>
        </g>
    </g>
</svg>